# xmcd
#
# Track frame offsets: 
#        150
#        11757
#        23693
#        35173
#        46882
#        60138
#        71817
#        85011
#        95310
#        107271
#        119814
#        130869
#        142891
#        155254
#        165522
#        178222
#        189625
#        201692
#        213747
#        225653
#        236383
#        247610
#        260434
#        272052
#        281237
#
# Disc length: 3898 seconds
#
# Revision: 0
# Processed by: cddbd v1.4PL0 Copyright (c) Steve Scherf et al.
# Submitted via: ExactAudioCopy v0.90b3
#
DISCID=5f0f3819
DTITLE=Kitty Wells - God's Honky Tonk Angel (The First Queen Of Countr
DTITLE=y Music)
DYEAR=1900
DGENRE=Country
TTITLE0=It Wasn't God Who Made Honky Tonk Angels
TTITLE1=Paying For That Back Street Affair
TTITLE2=Crying Steel Guitar Waltz
TTITLE3=Hey Joe
TTITLE4=One By One (With Red Foley)
TTITLE5=As Long As I Live (With Red Foley)
TTITLE6=Makin' Believe
TTITLE7=Whose Shoulder Will You Cry On
TTITLE8=There's Poison In Your Heart
TTITLE9=You And Me (With Red Foley)
TTITLE10=Searching (For Someone Like You)
TTITLE11=Repenting
TTITLE12=Oh So Many Years (With Webb Pierce)
TTITLE13=I Can't Stop Loving You
TTITLE14=Jealousy
TTITLE15=Mommy For A Day
TTITLE16=Amigo's Guitar
TTITLE17=Left To Right
TTITLE18=Heartbreak U.S.A.
TTITLE19=Unloved Unwanted
TTITLE20=Will Your Lawyer Talk To God
TTITLE21=This White Circle On My Finger
TTITLE22=Password
TTITLE23=I'll Repossess My Heart
TTITLE24=You Don't Hear
EXTD=
EXTT0=
EXTT1=
EXTT2=
EXTT3=
EXTT4=
EXTT5=
EXTT6=
EXTT7=
EXTT8=
EXTT9=
EXTT10=
EXTT11=
EXTT12=
EXTT13=
EXTT14=
EXTT15=
EXTT16=
EXTT17=
EXTT18=
EXTT19=
EXTT20=
EXTT21=
EXTT22=
EXTT23=
EXTT24=
PLAYORDER=
